<svg width="16" height="16" viewBox="0 0 16 16" fill="none" xmlns="http://www.w3.org/2000/svg">
<path d="M8.56 3.97662H13.0413C13.7486 3.97662 14.4269 4.25758 14.927 4.75767C15.427 5.25777 15.708 5.93605 15.708 6.64329V13.3333C15.708 14.0405 15.427 14.7188 14.927 15.2189C14.4269 15.719 13.7486 16 13.0413 16H2.91667C2.20942 16 1.53115 15.719 1.03105 15.2189C0.530951 14.7188 0.25 14.0405 0.25 13.3333V6.64329C0.25 5.93605 0.530951 5.25777 1.03105 4.75767C1.53115 4.25758 2.20942 3.97662 2.91667 3.97662H7.05733L4.40333 1.32262C4.33137 1.2507 4.27428 1.16531 4.23531 1.07133C4.19635 0.977341 4.17628 0.876601 4.17625 0.774859C4.17622 0.673117 4.19622 0.572365 4.23513 0.478355C4.27404 0.384346 4.33108 0.29892 4.403 0.226956C4.47492 0.154992 4.56031 0.0978978 4.6543 0.0589342C4.74828 0.0199706 4.84902 -9.9702e-05 4.95076 -0.000130653C5.05251 -0.000161605 5.15326 0.0198476 5.24727 0.058754C5.34128 0.0976604 5.4267 0.154702 5.49867 0.226623L7.80867 2.53662L10.118 0.226623C10.2633 0.0812843 10.4605 -0.000366216 10.666 -0.000366211C10.8715 -0.000366206 11.0687 0.0812843 11.214 0.226623C11.3593 0.371962 11.441 0.569083 11.441 0.774623C11.441 0.980163 11.3593 1.17728 11.214 1.32262L8.55933 3.97662H8.56ZM12.8453 9.12996C13.1491 9.12996 13.4404 9.00929 13.6552 8.7945C13.87 8.5797 13.9907 8.28838 13.9907 7.98462C13.9907 7.68086 13.87 7.38954 13.6552 7.17475C13.4404 6.95996 13.1491 6.83929 12.8453 6.83929C12.5416 6.83929 12.2503 6.95996 12.0355 7.17475C11.8207 7.38954 11.7 7.68086 11.7 7.98462C11.7 8.28838 11.8207 8.5797 12.0355 8.7945C12.2503 9.00929 12.5416 9.12996 12.8453 9.12996ZM12.8453 13.1373C12.998 13.141 13.1499 13.1141 13.292 13.0582C13.4342 13.0023 13.5637 12.9186 13.673 12.8119C13.7823 12.7052 13.8692 12.5777 13.9285 12.437C13.9878 12.2962 14.0183 12.145 14.0183 11.9923C14.0183 11.8396 13.9878 11.6884 13.9285 11.5476C13.8692 11.4069 13.7823 11.2794 13.673 11.1727C13.5637 11.066 13.4342 10.9823 13.292 10.9264C13.1499 10.8705 12.998 10.8436 12.8453 10.8473C12.5464 10.8545 12.2622 10.9783 12.0534 11.1922C11.8445 11.4062 11.7276 11.6933 11.7276 11.9923C11.7276 12.2913 11.8445 12.5784 12.0534 12.7923C12.2622 13.0063 12.5464 13.1301 12.8453 13.1373Z" fill="white"/>
</svg>
