<svg width="92" height="56" viewBox="0 0 92 56" fill="none" xmlns="http://www.w3.org/2000/svg">
<path d="M63.6442 34.8867C62.4614 35.1577 59.3481 35.3138 59.3481 35.3138L58.9539 36.546C58.9539 36.546 60.5064 36.4145 61.6399 36.5295C61.6399 36.5295 62.0096 36.4885 62.0506 36.9485C62.0671 37.3756 62.0178 37.8356 62.0178 37.8356C62.0178 37.8356 61.9931 38.1149 61.5989 38.1806C61.1717 38.2545 58.2474 38.3613 58.2474 38.3613L57.771 39.9631C57.771 39.9631 57.5985 40.3327 57.9928 40.226C58.3624 40.1274 61.4264 39.5524 61.8289 39.6345C62.256 39.7413 62.7324 40.3081 62.5928 40.8338C62.4285 41.4745 59.3728 43.4295 57.5081 43.2899C57.5081 43.2899 56.5306 43.3556 55.701 42.0331C54.9289 40.7763 55.9967 38.386 55.9967 38.386C55.9967 38.386 55.5121 37.2688 55.8653 36.8992C55.8653 36.8992 56.0789 36.7102 56.6867 36.661L57.4342 35.1085C57.4342 35.1085 56.5799 35.166 56.0706 34.5417C55.5942 33.942 55.5614 33.671 55.9228 33.5067C56.3089 33.3177 59.8656 32.6688 62.3135 32.751C62.3135 32.751 63.1678 32.6688 63.8989 34.1474C63.8906 34.1474 64.2521 34.747 63.6442 34.8867ZM54.436 40.8502C54.1239 41.5895 53.2942 42.3781 52.2674 41.8852C51.2489 41.3924 49.6306 38.082 49.6306 38.082C49.6306 38.082 49.0146 36.8499 48.8996 36.8745C48.8996 36.8745 48.7681 36.6363 48.686 37.9835C48.6039 39.3306 48.7024 41.951 48.1685 42.3617C47.6592 42.7724 47.0431 42.6081 46.7228 42.1235C46.4353 41.647 46.3121 40.5135 46.4681 38.5256C46.6571 36.5377 47.1171 34.4185 47.7085 33.7531C48.2999 33.096 48.7764 33.5724 48.9571 33.7449C48.9571 33.7449 49.7456 34.4595 51.0517 36.5624L51.2817 36.9485C51.2817 36.9485 52.4646 38.9363 52.5878 38.9281C52.5878 38.9281 52.6864 39.0185 52.7685 38.9527C52.8917 38.9199 52.8424 38.2792 52.8424 38.2792C52.8424 38.2792 52.596 36.1188 51.5199 32.4552C51.5199 32.4552 51.3556 31.9952 51.4706 31.5681C51.5774 31.1327 52.0128 31.3381 52.0128 31.3381C52.0128 31.3381 53.6885 32.176 54.4935 34.9031C55.2903 37.6549 54.7481 40.111 54.436 40.8502ZM46.2053 33.8435C46.0656 34.1227 45.9835 34.5252 45.2771 34.632C45.2771 34.632 38.5167 35.092 38.1964 35.5685C38.1964 35.5685 37.9581 35.8477 38.3278 35.9299C38.6974 36.0038 40.2253 36.2092 40.9646 36.2502C41.7531 36.2585 44.4146 36.2831 45.3674 37.4742C45.3674 37.4742 45.9342 38.041 45.9096 39.3224C45.8849 40.6367 45.6549 41.0967 45.1456 41.5731C44.6117 42.0167 40.0281 44.0702 37.071 40.916C37.071 40.916 35.7074 39.3963 37.5392 38.2463C37.5392 38.2463 38.8617 37.4495 42.2214 38.386C42.2214 38.386 43.2399 38.7556 43.1906 39.1252C43.1331 39.5195 42.3528 39.9385 41.2192 39.9138C40.1185 39.881 39.3135 39.3552 39.4696 39.4374C39.6174 39.4949 38.2867 38.7967 37.876 39.2731C37.4653 39.7085 37.5639 39.9795 37.9664 40.2506C38.9931 40.8338 42.9606 40.6285 44.1435 39.3142C44.1435 39.3142 44.6117 38.7802 43.8971 38.3449C43.1824 37.9342 41.1371 37.6877 40.3403 37.6467C39.5764 37.6056 36.7342 37.6549 36.3235 36.8992C36.3235 36.8992 35.9128 36.3899 36.3646 34.9442C36.841 33.4327 40.1514 32.8495 41.5806 32.7181C41.5806 32.7181 45.5153 32.5785 46.2381 33.3835C46.2299 33.3835 46.3285 33.5724 46.2053 33.8435ZM35.0339 42.7067C34.5574 43.0599 33.5471 42.9038 33.2596 42.5095C32.9721 42.1563 32.8735 40.7517 32.931 38.5502C32.9885 36.3242 33.0378 33.5642 33.5142 33.1288C34.0235 32.6852 34.3356 33.0713 34.5328 33.3752C34.7464 33.671 35.001 33.9995 35.0585 34.6977C35.1078 35.396 35.2721 39.0595 35.2721 39.0595C35.2721 39.0595 35.4856 42.3617 35.0339 42.7067ZM36.0606 30.8945C34.6724 31.3545 33.7196 31.1985 32.9146 30.8535C32.5614 31.4695 32.356 31.6585 32.0849 31.6995C31.6906 31.7406 31.3374 31.1081 31.2717 30.9027C31.206 30.7467 31.0171 30.4838 31.2471 29.8595C30.4585 29.1531 30.401 28.2002 30.5324 27.5595C30.7296 26.8202 32.0603 24.011 36.1099 23.6824C36.1099 23.6824 38.0896 23.5345 38.4264 24.5942H38.4839C38.4839 24.5942 40.406 24.6024 40.3649 26.311C40.3403 28.0277 38.2292 30.1635 36.0606 30.8945ZM32.2821 27.0913C31.8714 27.7485 31.8549 28.1427 32.0439 28.4138C32.5121 27.6992 33.3664 26.5738 34.6231 25.7195C33.6539 25.8017 32.8406 26.2206 32.2821 27.0913ZM37.876 25.9906C36.6028 26.1795 34.6314 27.8881 33.6949 29.2845C35.1324 29.5474 37.6706 29.4488 38.796 27.157C38.7878 27.157 39.3299 25.736 37.876 25.9906ZM72.4417 39.2238C71.6778 40.5545 69.5339 43.331 66.6753 42.682C65.7306 44.9738 64.9421 47.282 64.4903 50.7485C64.4903 50.7485 64.3917 51.422 63.8331 51.1838C63.2828 50.9867 62.3628 50.0667 62.1821 48.7935C61.9849 47.1177 62.7324 44.2838 64.2521 41.0392C63.8085 40.3163 63.5046 39.2813 63.7674 37.811C63.7674 37.811 64.1535 35.0838 66.8889 32.6195C66.8889 32.6195 67.2174 32.332 67.4064 32.4224C67.6199 32.5127 67.5214 33.3999 67.3489 33.827C67.1764 34.2542 65.9524 36.3735 65.9524 36.3735C65.9524 36.3735 65.1885 37.8027 65.4021 38.9281C66.8396 36.7185 70.1089 32.2581 72.1378 33.6627C72.8196 34.1474 73.1317 35.207 73.1317 36.3488C73.1235 37.3592 72.8853 38.427 72.4417 39.2238ZM71.8503 35.7245C71.8503 35.7245 71.7353 34.8456 70.881 35.8149C70.1417 36.6281 68.811 38.1642 67.7349 40.2424C68.8603 40.1192 69.9446 39.5031 70.2731 39.191C70.8071 38.7145 72.0474 37.4331 71.8503 35.7245ZM31.9699 36.8417C31.8139 38.8295 31.0499 42.1727 25.6367 43.8238C22.0635 44.8999 18.6874 44.3824 16.8474 43.9142C16.8064 44.6452 16.7242 44.9574 16.6092 45.0806C16.4531 45.2367 15.2867 45.9102 14.646 44.9574C14.3585 44.5056 14.2106 43.6842 14.1285 42.9531C9.98851 41.0474 8.08279 38.3038 8.00886 38.1806C7.91851 38.0902 6.97386 37.1045 7.91851 35.897C8.80565 34.8045 11.7053 33.712 14.3174 33.2685C14.4078 31.0342 14.6707 29.3502 14.9828 28.5781C15.3607 27.6827 15.8371 28.4877 16.2478 29.0956C16.5928 29.5474 16.7982 31.4942 16.8146 33.0467C18.5231 32.9645 19.5335 33.0877 21.4392 33.4327C23.9199 33.8845 25.5792 35.1495 25.4314 36.587C25.3246 37.9999 24.0267 38.5831 23.5339 38.6242C23.0164 38.6652 22.2114 38.2956 22.2114 38.2956C21.661 38.0327 22.1703 37.8027 22.8356 37.5152C23.5585 37.162 23.3942 36.8006 23.3942 36.8006C23.1231 36.012 19.9031 35.4617 16.6996 35.4617C16.6831 37.2277 16.7735 40.1602 16.8146 41.8688C19.0571 42.296 20.7328 42.2138 20.7328 42.2138C20.7328 42.2138 28.9142 41.9838 29.1606 36.7595C29.4153 31.527 21.0039 26.5081 14.7856 24.9145C8.57565 23.2881 5.05993 24.4217 4.75601 24.5777C4.42743 24.742 4.73136 24.7913 4.73136 24.7913C4.73136 24.7913 5.06815 24.8406 5.65136 25.0377C6.26743 25.2349 5.79101 25.5552 5.79101 25.5552C4.73136 25.892 3.54029 25.6785 3.31029 25.1938C3.08029 24.7092 3.46636 24.2738 3.90994 23.6495C4.35351 22.9924 4.83815 23.017 4.83815 23.017C12.5185 20.3556 21.8746 25.1692 21.8746 25.1692C30.6392 29.6131 32.1342 34.821 31.9699 36.8417ZM8.78922 36.5706C7.91851 36.9977 8.51815 37.6138 8.51815 37.6138C10.1528 39.3717 12.1653 40.4724 14.0792 41.1542C14.301 38.1231 14.2681 37.0552 14.2928 35.5274C11.3028 35.7327 9.57779 36.2092 8.78922 36.5706Z" fill="white"/>
<path d="M88.7058 35.9461V37.0304C88.7058 37.2686 88.5169 37.4575 88.2787 37.4575H83.1119C83.1119 37.7286 83.1201 37.9668 83.1201 38.1886C83.1201 39.7904 83.0544 41.0965 82.8983 42.5668C82.8737 42.7886 82.693 42.9529 82.4794 42.9529H81.3622C81.2472 42.9529 81.1405 42.9036 81.0665 42.8215C80.9926 42.7393 80.9515 42.6243 80.968 42.5093C81.124 41.0472 81.198 39.7575 81.198 38.1886C81.198 37.9586 81.198 37.7204 81.1898 37.4575H76.0805C75.8422 37.4575 75.6533 37.2686 75.6533 37.0304V35.9461C75.6533 35.7079 75.8422 35.519 76.0805 35.519H81.1158C81.009 33.7529 80.7955 32.0525 80.4505 30.3275C80.434 30.2207 80.4587 30.114 80.5244 30.0318C80.5901 29.9497 80.6887 29.9004 80.7955 29.9004H82.003C82.1919 29.9004 82.348 30.0318 82.389 30.2207C82.7258 32.0032 82.9394 33.7365 83.0462 35.519H88.2787C88.5087 35.519 88.7058 35.7161 88.7058 35.9461Z" fill="white"/>
<path d="M81.6746 27.3454C79.005 20.7822 74.4953 15.1882 68.6303 11.1632C62.6257 7.04788 55.5861 4.87109 48.2753 4.87109C36.1839 4.87109 24.9632 10.8757 18.2686 20.9382C18.1946 21.045 18.1782 21.1847 18.2193 21.3079C18.2603 21.4393 18.3589 21.5297 18.4821 21.5707L19.4186 21.8911C19.4761 21.9075 19.5336 21.9157 19.5828 21.9157C19.7553 21.9157 19.9196 21.8254 20.0182 21.6857C23.0903 17.1679 27.2468 13.414 32.0439 10.8182C36.9971 8.14038 42.6075 6.71931 48.2671 6.71931C55.1096 6.71931 61.7057 8.74002 67.3571 12.5515C72.8689 16.2725 77.1485 21.4722 79.736 27.5754C79.81 27.7561 79.9907 27.8793 80.1878 27.8793H81.305C81.4364 27.8793 81.5596 27.8136 81.6253 27.7068C81.7075 27.6 81.7239 27.4686 81.6746 27.3454ZM19.5828 21.6364C19.5582 21.6364 19.5336 21.6282 19.5089 21.62C19.5336 21.6282 19.5582 21.6364 19.5828 21.6364C19.5911 21.6364 19.5993 21.6364 19.5993 21.6364C19.5993 21.6364 19.5911 21.6364 19.5828 21.6364ZM79.9578 27.7314C79.9825 27.7479 80.0071 27.7643 80.0318 27.7725C80.0071 27.7561 79.9825 27.7479 79.9578 27.7314Z" fill="url(#paint0_radial_2799_1711)"/>
<defs>
<radialGradient id="paint0_radial_2799_1711" cx="0" cy="0" r="1" gradientUnits="userSpaceOnUse" gradientTransform="translate(80.6252 27.8379) scale(62.4388 62.4388)">
<stop offset="0.00708621" stop-color="white"/>
<stop offset="0.0300991" stop-color="#CBFFFF"/>
<stop offset="0.0570069" stop-color="#96FFFF"/>
<stop offset="0.0842769" stop-color="#68FFFF"/>
<stop offset="0.1113" stop-color="#43FFFF"/>
<stop offset="0.1382" stop-color="#25FFFF"/>
<stop offset="0.1647" stop-color="#11FFFF"/>
<stop offset="0.1908" stop-color="#04FFFF"/>
<stop offset="0.2159" stop-color="#00FFFF"/>
<stop offset="1" stop-color="#0000FF" stop-opacity="0"/>
</radialGradient>
</defs>
</svg>
