<svg width="14" height="16" viewBox="0 0 14 16" fill="none" xmlns="http://www.w3.org/2000/svg">
<path d="M13.0982 9.61395L2.5135 15.516C2.29031 15.6402 2.03855 15.704 1.78313 15.701C1.52771 15.698 1.2775 15.6284 1.05726 15.499C0.837018 15.3697 0.654386 15.185 0.527442 14.9633C0.400497 14.7417 0.333643 14.4907 0.333496 14.2353V2.43128C0.333578 2.17575 0.400419 1.92468 0.527398 1.70293C0.654377 1.48119 0.837087 1.29646 1.05743 1.16706C1.27777 1.03766 1.5281 0.968065 1.78361 0.965181C2.03912 0.962297 2.29096 1.02622 2.51416 1.15062L13.0982 7.05195C13.3263 7.17914 13.5163 7.36493 13.6486 7.59014C13.7808 7.81534 13.8506 8.07178 13.8506 8.33295C13.8506 8.59413 13.7808 8.85056 13.6486 9.07577C13.5163 9.30097 13.3263 9.48676 13.0982 9.61395Z" fill="#1A1D29"/>
</svg>
